<svg xmlns="http://www.w3.org/2000/svg" xmlns:xlink="http://www.w3.org/1999/xlink" width="500" zoomAndPan="magnify" viewBox="0 0 375 374.999991" height="500" preserveAspectRatio="xMidYMid meet" version="1.0"><defs><g/><clipPath id="a69909a73e"><rect x="0" width="275" y="0" height="103"/></clipPath></defs><rect x="-37.5" width="450" fill="#ffffff" y="-37.499999" height="449.999989" fill-opacity="1"/><rect x="-37.5" width="450" fill="#ffffff" y="-37.499999" height="449.999989" fill-opacity="1"/><g transform="matrix(1, 0, 0, 1, 47, 147)"><g clip-path="url(#a69909a73e)"><g fill="#ff5757" fill-opacity="1"><g transform="translate(1.283017, 71.237109)"><g><path d="M 48.703125 -9.03125 C 49.722656 -9.03125 50.4375 -8.71875 50.84375 -8.09375 C 51.257812 -7.476562 51.46875 -6.273438 51.46875 -4.484375 C 51.46875 -3.253906 51.367188 -2.316406 51.171875 -1.671875 C 50.984375 -1.023438 50.695312 -0.582031 50.3125 -0.34375 C 49.9375 -0.113281 49.398438 0 48.703125 0 L 41.171875 0 C 39.703125 0 38.554688 -0.585938 37.734375 -1.765625 L 26.640625 -17.171875 L 20.5625 -12.546875 L 20.5625 -9.03125 L 24.390625 -9.03125 C 25.097656 -9.03125 25.640625 -8.90625 26.015625 -8.65625 C 26.398438 -8.40625 26.6875 -7.957031 26.875 -7.3125 C 27.070312 -6.664062 27.171875 -5.722656 27.171875 -4.484375 C 27.171875 -3.253906 27.070312 -2.316406 26.875 -1.671875 C 26.6875 -1.023438 26.398438 -0.582031 26.015625 -0.34375 C 25.640625 -0.113281 25.097656 0 24.390625 0 L 6.171875 0 C 5.460938 0 4.914062 -0.113281 4.53125 -0.34375 C 4.15625 -0.582031 3.867188 -1.023438 3.671875 -1.671875 C 3.484375 -2.316406 3.390625 -3.253906 3.390625 -4.484375 C 3.390625 -5.722656 3.484375 -6.664062 3.671875 -7.3125 C 3.867188 -7.957031 4.15625 -8.40625 4.53125 -8.65625 C 4.914062 -8.90625 5.460938 -9.03125 6.171875 -9.03125 L 9.546875 -9.03125 L 9.546875 -48.734375 L 5.28125 -48.734375 C 4.582031 -48.734375 4.039062 -48.847656 3.65625 -49.078125 C 3.269531 -49.316406 2.984375 -49.757812 2.796875 -50.40625 C 2.609375 -51.050781 2.515625 -51.992188 2.515625 -53.234375 C 2.515625 -54.460938 2.609375 -55.398438 2.796875 -56.046875 C 2.984375 -56.691406 3.269531 -57.140625 3.65625 -57.390625 C 4.039062 -57.640625 4.582031 -57.765625 5.28125 -57.765625 L 17.78125 -57.765625 C 18.78125 -57.765625 19.492188 -57.550781 19.921875 -57.125 C 20.347656 -56.695312 20.5625 -55.988281 20.5625 -55 L 20.5625 -23.203125 L 32.015625 -32.53125 L 29.8125 -32.53125 C 28.78125 -32.53125 28.054688 -32.804688 27.640625 -33.359375 C 27.234375 -33.921875 27.03125 -35 27.03125 -36.59375 C 27.03125 -38.207031 27.234375 -39.289062 27.640625 -39.84375 C 28.054688 -40.40625 28.78125 -40.6875 29.8125 -40.6875 L 48.03125 -40.6875 C 49.0625 -40.6875 49.78125 -40.40625 50.1875 -39.84375 C 50.601562 -39.289062 50.8125 -38.207031 50.8125 -36.59375 C 50.8125 -35 50.601562 -33.921875 50.1875 -33.359375 C 49.78125 -32.804688 49.0625 -32.53125 48.03125 -32.53125 L 46.28125 -32.53125 L 35.3125 -23.6875 L 46.015625 -9.03125 Z M 48.703125 -9.03125 "/></g></g></g><g fill="#ff5757" fill-opacity="1"><g transform="translate(46.150043, 71.237109)"><g><path d="M 40.8125 -41.65625 C 43.3125 -41.65625 45.660156 -40.832031 47.859375 -39.1875 C 49.148438 -38.25 49.796875 -37.015625 49.796875 -35.484375 C 49.796875 -34.515625 49.53125 -33.367188 49 -32.046875 C 48.476562 -30.734375 47.882812 -29.738281 47.21875 -29.0625 C 46.5625 -28.382812 45.863281 -28.046875 45.125 -28.046875 C 44.71875 -28.046875 44.28125 -28.164062 43.8125 -28.40625 C 42.164062 -29.3125 40.460938 -29.765625 38.703125 -29.765625 C 36.441406 -29.765625 34.328125 -29.046875 32.359375 -27.609375 C 30.390625 -26.171875 28.8125 -24.1875 27.625 -21.65625 C 26.4375 -19.132812 25.84375 -16.316406 25.84375 -13.203125 L 25.84375 -9.03125 L 38.484375 -9.03125 C 39.179688 -9.03125 39.722656 -8.90625 40.109375 -8.65625 C 40.492188 -8.40625 40.78125 -7.957031 40.96875 -7.3125 C 41.15625 -6.664062 41.25 -5.722656 41.25 -4.484375 C 41.25 -3.253906 41.15625 -2.316406 40.96875 -1.671875 C 40.78125 -1.023438 40.492188 -0.582031 40.109375 -0.34375 C 39.722656 -0.113281 39.179688 0 38.484375 0 L 8.359375 0 C 7.660156 0 7.117188 -0.113281 6.734375 -0.34375 C 6.359375 -0.582031 6.070312 -1.023438 5.875 -1.671875 C 5.6875 -2.316406 5.59375 -3.253906 5.59375 -4.484375 C 5.59375 -5.722656 5.6875 -6.664062 5.875 -7.3125 C 6.070312 -7.957031 6.359375 -8.40625 6.734375 -8.65625 C 7.117188 -8.90625 7.660156 -9.03125 8.359375 -9.03125 L 14.84375 -9.03125 L 14.84375 -31.65625 L 9.6875 -31.65625 C 8.976562 -31.65625 8.429688 -31.769531 8.046875 -32 C 7.671875 -32.238281 7.382812 -32.679688 7.1875 -33.328125 C 7 -33.972656 6.90625 -34.910156 6.90625 -36.140625 C 6.90625 -37.378906 7 -38.320312 7.1875 -38.96875 C 7.382812 -39.613281 7.671875 -40.0625 8.046875 -40.3125 C 8.429688 -40.5625 8.976562 -40.6875 9.6875 -40.6875 L 21.75 -40.6875 C 22.75 -40.6875 23.460938 -40.472656 23.890625 -40.046875 C 24.316406 -39.617188 24.53125 -38.90625 24.53125 -37.90625 L 24.53125 -28.359375 C 26.726562 -32.609375 29.253906 -35.882812 32.109375 -38.1875 C 34.972656 -40.5 37.875 -41.65625 40.8125 -41.65625 Z M 40.8125 -41.65625 "/></g></g></g><g fill="#000000" fill-opacity="1"><g transform="translate(91.017136, 71.237109)"><g><path d="M 29.9375 -57.765625 C 30.9375 -57.765625 31.648438 -57.550781 32.078125 -57.125 C 32.503906 -56.695312 32.71875 -55.988281 32.71875 -55 L 32.71875 -9.03125 L 45.09375 -9.03125 C 45.789062 -9.03125 46.328125 -8.90625 46.703125 -8.65625 C 47.085938 -8.40625 47.375 -7.957031 47.5625 -7.3125 C 47.757812 -6.664062 47.859375 -5.722656 47.859375 -4.484375 C 47.859375 -3.253906 47.757812 -2.316406 47.5625 -1.671875 C 47.375 -1.023438 47.085938 -0.582031 46.703125 -0.34375 C 46.328125 -0.113281 45.789062 0 45.09375 0 L 9.6875 0 C 8.976562 0 8.429688 -0.113281 8.046875 -0.34375 C 7.671875 -0.582031 7.382812 -1.023438 7.1875 -1.671875 C 7 -2.316406 6.90625 -3.253906 6.90625 -4.484375 C 6.90625 -5.722656 7 -6.664062 7.1875 -7.3125 C 7.382812 -7.957031 7.671875 -8.40625 8.046875 -8.65625 C 8.429688 -8.90625 8.976562 -9.03125 9.6875 -9.03125 L 21.703125 -9.03125 L 21.703125 -48.734375 L 11.453125 -48.734375 C 10.742188 -48.734375 10.195312 -48.847656 9.8125 -49.078125 C 9.4375 -49.316406 9.148438 -49.757812 8.953125 -50.40625 C 8.765625 -51.050781 8.671875 -51.992188 8.671875 -53.234375 C 8.671875 -54.460938 8.765625 -55.398438 8.953125 -56.046875 C 9.148438 -56.691406 9.4375 -57.140625 9.8125 -57.390625 C 10.195312 -57.640625 10.742188 -57.765625 11.453125 -57.765625 Z M 29.9375 -57.765625 "/></g></g></g><g fill="#000000" fill-opacity="1"><g transform="translate(135.884162, 71.237109)"><g><path d="M 26.546875 -41.65625 C 33.003906 -41.65625 37.671875 -40.257812 40.546875 -37.46875 C 43.421875 -34.675781 44.859375 -30.6875 44.859375 -25.5 L 44.859375 -12.765625 C 44.859375 -11.585938 45.109375 -10.671875 45.609375 -10.015625 C 46.109375 -9.359375 46.828125 -9.03125 47.765625 -9.03125 L 49.140625 -9.03125 C 49.835938 -9.03125 50.378906 -8.90625 50.765625 -8.65625 C 51.148438 -8.40625 51.4375 -7.957031 51.625 -7.3125 C 51.8125 -6.664062 51.90625 -5.722656 51.90625 -4.484375 C 51.90625 -3.253906 51.8125 -2.316406 51.625 -1.671875 C 51.4375 -1.023438 51.148438 -0.582031 50.765625 -0.34375 C 50.378906 -0.113281 49.835938 0 49.140625 0 L 44.203125 0 C 42.378906 0 40.769531 -0.375 39.375 -1.125 C 37.988281 -1.875 36.925781 -3.054688 36.1875 -4.671875 C 33.875 -2.878906 31.425781 -1.488281 28.84375 -0.5 C 26.257812 0.476562 23.601562 0.96875 20.875 0.96875 C 17.550781 0.96875 14.6875 0.40625 12.28125 -0.71875 C 9.875 -1.851562 8.03125 -3.46875 6.75 -5.5625 C 5.476562 -7.664062 4.84375 -10.140625 4.84375 -12.984375 C 4.84375 -17.097656 6.296875 -20.285156 9.203125 -22.546875 C 12.109375 -24.804688 16.171875 -25.9375 21.390625 -25.9375 C 25.296875 -25.9375 29.453125 -25.492188 33.859375 -24.609375 L 33.859375 -25.890625 C 33.859375 -27.859375 33.238281 -29.3125 32 -30.25 C 30.769531 -31.1875 28.601562 -31.65625 25.5 -31.65625 C 23.757812 -31.65625 21.828125 -31.441406 19.703125 -31.015625 C 17.578125 -30.585938 15.472656 -30.023438 13.390625 -29.328125 C 12.890625 -29.179688 12.460938 -29.109375 12.109375 -29.109375 C 11.367188 -29.109375 10.710938 -29.378906 10.140625 -29.921875 C 9.578125 -30.460938 9.054688 -31.378906 8.578125 -32.671875 C 8.140625 -33.960938 7.921875 -35.019531 7.921875 -35.84375 C 7.921875 -37.332031 8.597656 -38.328125 9.953125 -38.828125 C 12.566406 -39.773438 15.335938 -40.484375 18.265625 -40.953125 C 21.203125 -41.421875 23.960938 -41.65625 26.546875 -41.65625 Z M 22.5 -16.859375 C 20.445312 -16.859375 18.882812 -16.488281 17.8125 -15.75 C 16.738281 -15.019531 16.203125 -13.953125 16.203125 -12.546875 C 16.203125 -11.171875 16.722656 -10.125 17.765625 -9.40625 C 18.804688 -8.6875 20.3125 -8.328125 22.28125 -8.328125 C 24.300781 -8.328125 26.300781 -8.726562 28.28125 -9.53125 C 30.269531 -10.34375 32.128906 -11.453125 33.859375 -12.859375 L 33.859375 -15.671875 C 29.984375 -16.460938 26.195312 -16.859375 22.5 -16.859375 Z M 22.5 -16.859375 "/></g></g></g><g fill="#000000" fill-opacity="1"><g transform="translate(180.751189, 71.237109)"><g><path d="M 16.46875 -57.765625 C 17.46875 -57.765625 18.175781 -57.550781 18.59375 -57.125 C 19.019531 -56.695312 19.234375 -55.988281 19.234375 -55 L 19.234375 -36.453125 C 20.734375 -38.128906 22.46875 -39.414062 24.4375 -40.3125 C 26.40625 -41.207031 28.535156 -41.65625 30.828125 -41.65625 C 34.671875 -41.65625 38.03125 -40.710938 40.90625 -38.828125 C 43.78125 -36.953125 45.976562 -34.398438 47.5 -31.171875 C 49.03125 -27.941406 49.796875 -24.332031 49.796875 -20.34375 C 49.796875 -16.351562 49.03125 -12.742188 47.5 -9.515625 C 45.976562 -6.285156 43.78125 -3.726562 40.90625 -1.84375 C 38.03125 0.03125 34.671875 0.96875 30.828125 0.96875 C 28.035156 0.96875 25.492188 0.316406 23.203125 -0.984375 C 20.910156 -2.296875 19.003906 -4.125 17.484375 -6.46875 L 17.484375 -2.78125 C 17.484375 -1.78125 17.269531 -1.066406 16.84375 -0.640625 C 16.414062 -0.210938 15.703125 0 14.703125 0 L 4.84375 0 C 4.132812 0 3.585938 -0.125 3.203125 -0.375 C 2.828125 -0.625 2.539062 -1.070312 2.34375 -1.71875 C 2.15625 -2.363281 2.0625 -3.300781 2.0625 -4.53125 C 2.0625 -5.769531 2.15625 -6.710938 2.34375 -7.359375 C 2.539062 -8.003906 2.828125 -8.441406 3.203125 -8.671875 C 3.585938 -8.910156 4.132812 -9.03125 4.84375 -9.03125 L 8.234375 -9.03125 L 8.234375 -48.734375 L 3.96875 -48.734375 C 3.257812 -48.734375 2.710938 -48.847656 2.328125 -49.078125 C 1.953125 -49.316406 1.664062 -49.757812 1.46875 -50.40625 C 1.28125 -51.050781 1.1875 -51.992188 1.1875 -53.234375 C 1.1875 -54.460938 1.28125 -55.398438 1.46875 -56.046875 C 1.664062 -56.691406 1.953125 -57.140625 2.328125 -57.390625 C 2.710938 -57.640625 3.257812 -57.765625 3.96875 -57.765625 Z M 29.0625 -31.65625 C 27.175781 -31.65625 25.46875 -31.210938 23.9375 -30.328125 C 22.414062 -29.453125 21.203125 -28.15625 20.296875 -26.4375 C 19.390625 -24.71875 18.9375 -22.6875 18.9375 -20.34375 C 18.9375 -17.988281 19.390625 -15.953125 20.296875 -14.234375 C 21.203125 -12.523438 22.414062 -11.226562 23.9375 -10.34375 C 25.46875 -9.46875 27.175781 -9.03125 29.0625 -9.03125 C 30.882812 -9.03125 32.46875 -9.488281 33.8125 -10.40625 C 35.164062 -11.332031 36.203125 -12.644531 36.921875 -14.34375 C 37.640625 -16.050781 38 -18.050781 38 -20.34375 C 38 -22.632812 37.640625 -24.628906 36.921875 -26.328125 C 36.203125 -28.035156 35.164062 -29.347656 33.8125 -30.265625 C 32.46875 -31.191406 30.882812 -31.65625 29.0625 -31.65625 Z M 29.0625 -31.65625 "/></g></g></g><g fill="#000000" fill-opacity="1"><g transform="translate(225.618215, 71.237109)"><g><path d="M 39.890625 -41.65625 C 41.765625 -41.65625 43.097656 -41.441406 43.890625 -41.015625 C 44.691406 -40.585938 45.09375 -39.875 45.09375 -38.875 L 45.09375 -29.59375 C 45.09375 -28.59375 44.773438 -27.878906 44.140625 -27.453125 C 43.503906 -27.023438 42.46875 -26.8125 41.03125 -26.8125 C 39.476562 -26.8125 38.410156 -27.117188 37.828125 -27.734375 C 36.085938 -29.585938 34.101562 -30.898438 31.875 -31.671875 C 29.644531 -32.453125 27.0625 -32.84375 24.125 -32.84375 C 22.394531 -32.84375 21.035156 -32.535156 20.046875 -31.921875 C 19.066406 -31.304688 18.578125 -30.484375 18.578125 -29.453125 C 18.578125 -28.222656 19.664062 -27.34375 21.84375 -26.8125 C 22.988281 -26.519531 24.9375 -26.242188 27.6875 -25.984375 C 30.425781 -25.660156 32.695312 -25.335938 34.5 -25.015625 C 36.300781 -24.691406 38.007812 -24.207031 39.625 -23.5625 C 41.976562 -22.59375 43.8125 -21.238281 45.125 -19.5 C 46.445312 -17.769531 47.109375 -15.484375 47.109375 -12.640625 C 47.109375 -9.847656 46.425781 -7.429688 45.0625 -5.390625 C 43.695312 -3.347656 41.703125 -1.773438 39.078125 -0.671875 C 36.453125 0.421875 33.289062 0.96875 29.59375 0.96875 C 25.507812 0.96875 21.722656 -0.0703125 18.234375 -2.15625 L 18.234375 -1.8125 C 18.234375 -0.8125 17.804688 -0.0976562 16.953125 0.328125 C 16.097656 0.753906 14.734375 0.96875 12.859375 0.96875 C 10.972656 0.96875 9.632812 0.753906 8.84375 0.328125 C 8.050781 -0.0976562 7.65625 -0.8125 7.65625 -1.8125 L 7.65625 -11.625 C 7.65625 -12.59375 8 -13.296875 8.6875 -13.734375 C 9.382812 -14.171875 10.453125 -14.390625 11.890625 -14.390625 C 13.679688 -14.390625 14.898438 -13.984375 15.546875 -13.171875 C 17.015625 -11.316406 18.890625 -9.960938 21.171875 -9.109375 C 23.460938 -8.265625 25.972656 -7.84375 28.703125 -7.84375 C 33.398438 -7.84375 35.75 -9.054688 35.75 -11.484375 C 35.75 -12.222656 35.414062 -12.8125 34.75 -13.25 C 34.09375 -13.6875 33.117188 -14.054688 31.828125 -14.359375 C 31.097656 -14.503906 29.394531 -14.765625 26.71875 -15.140625 C 23.757812 -15.492188 21.210938 -15.898438 19.078125 -16.359375 C 16.953125 -16.816406 15.023438 -17.53125 13.296875 -18.5 C 9.242188 -20.726562 7.21875 -24.25 7.21875 -29.0625 C 7.21875 -31.613281 7.90625 -33.84375 9.28125 -35.75 C 10.664062 -37.65625 12.566406 -39.113281 14.984375 -40.125 C 17.410156 -41.144531 20.132812 -41.65625 23.15625 -41.65625 C 27.59375 -41.65625 31.523438 -40.582031 34.953125 -38.4375 L 34.953125 -38.875 C 34.953125 -39.875 35.3125 -40.585938 36.03125 -41.015625 C 36.75 -41.441406 38.035156 -41.65625 39.890625 -41.65625 Z M 39.890625 -41.65625 "/></g></g></g></g></g></svg>


